/* XPM */
static char *collectible[] = {
/* columns rows colors chars-per-pixel */
"32 32 88 1 ",
"  c #996B14",
". c #A37216",
"X c #AF7A16",
"o c #B37B16",
"O c #B57F19",
"+ c #BA831B",
"@ c #BD8820",
"# c #C4891A",
"$ c #CD8F1B",
"% c #D2931C",
"& c #E19D1F",
"* c #ECA31E",
"= c #C48D22",
"- c #CC9122",
"; c #C5922A",
": c #D39623",
"> c #D59925",
", c #D19E2D",
"< c #CC9B30",
"1 c #E09F25",
"2 c #D6A435",
"3 c #D0A43E",
"4 c #EBA523",
"5 c #EDAE2E",
"6 c #F0A720",
"7 c #F2AA23",
"8 c #E7AD31",
"9 c #ECAF36",
"0 c #E8AF3A",
"q c #E7B137",
"w c #EFB535",
"e c #E5B23A",
"r c #EBB93D",
"t c #F4B937",
"y c #F9BA35",
"u c #F5B43F",
"i c #F3BD3E",
"p c #F9BD3D",
"a c #FBC337",
"s c #F5C23F",
"d c #FCC63B",
"f c #FDCB3C",
"g c #FDD03D",
"h c #D0A742",
"j c #DAB14F",
"k c #ECB646",
"l c #EEBD41",
"z c #F5BC42",
"x c #F8BB42",
"c c #E3B755",
"v c #E2BA5C",
"b c #F5C242",
"n c #FEC547",
"m c #F4C947",
"M c #FDCD44",
"N c #FEC749",
"B c #FDCA4A",
"V c #FDD046",
"C c #FDD54D",
"Z c #FED84F",
"A c #EECD5F",
"S c #FCCE56",
"D c #FED652",
"F c #FFDA53",
"G c #FDD55A",
"H c #F6D85F",
"J c #FEDB5B",
"K c #FEE05D",
"L c #E7CD6B",
"P c #F3C763",
"I c #F3CE69",
"U c #FCD762",
"Y c #FCDB63",
"T c #F5D96A",
"R c #FADD6D",
"E c #F7DC70",
"W c #F9DE75",
"Q c #FFE264",
"! c #FCE36C",
"~ c #FCE772",
"^ c #FDE97D",
"/ c #F9DE8A",
"( c #F5E281",
") c #F9E482",
"_ c #FDE984",
"` c #FDEA8B",
"' c #FCE994",
"] c #e0e0e0",
/* pixels */
"]]]]]]]]]]]]]]]]]]]]]]]]]]]]]]]]",
"]]]]]]]]]]]]]]]]]]]]]]]]]]]]]]]]",
"]]]]]]]]]]]]]]]]]]]]]]]]]]]]]]]]",
"]]]]]]]]]]]]]]]]]]]]]]]]]]]]]]]]",
"]]]]]]]]]]]]->emCCCVV]]]]]]]]]]]",
"]]]]]]]]]]4>eUKFFFFFZZ]]]]]]]]]]",
"]]]]]]]]]44b~KFFFFZFZZZ]]]]]]]]]",
"]]]]]]]]46z^KZFMdaasCFZZ]]]]]]]]",
"]]]]]]]]45)QFCffMMNptBFFC]]]]]]]",
"]]]]]]]44I^FCdNsw8GDBpBFZ]]]]]]]",
"]]]]]]]49'JFfMCpk9TFDSxFZC]]]]]]",
"]]]]]]4*P_FVnCCNNiEFDDNDZZ]]]]]]",
"]]]]]]77/!FMVCCNNsEFDDGSFZ]]]]]]",
"]]]]]]7y'JCMCDCNNs~FZDGSFC]]]]]]",
"]]]]]]&k'FVMCDCNNbWGFDFYJZ]]]]]]",
"]]]]]:%c`FVVDDCNNbWFCFG!KC]]]]]]",
"]]]]]-%v_FVVCDCNNs~FDFJ!JZ]]]]]]",
"]]]]]-$v_FMVCFCNNbWJDDG!FZ]]]]]]",
"]]]]]=#j_ZVMDFCNNbWFDFJ!FZ]]]]]]",
"]]]]]]+3_FCMCCCNNzWFDFUYZC]]]]]]",
"]]]]]]+;(JZfCCCNniEFDJYFZ]]]]]]]",
"]]]]]]++LQFVfCCxu0EDDHKFC]]]]]]]",
"]]]]]]]oh!FZfVCw4zRDGGFZC]]]]]]]",
"]]]]]]]+@AJFCggVCCNMBFFC]]]]]]]]",
"]]]]]]]]o<HFFCgfdafVFFC]]]]]]]]]",
"]]]]]]]]].2DFFFZCCFFZC]]]]]]]]]]",
"]]]]]]]]]].,BFFFZFFFC]]]]]]]]]]]",
"]]]]]]]]]]] ;rBDCCVm]]]]]]]]]]]]",
"]]]]]]]]]]]]]]]]]]]]]]]]]]]]]]]]",
"]]]]]]]]]]]]]]]]]]]]]]]]]]]]]]]]",
"]]]]]]]]]]]]]]]]]]]]]]]]]]]]]]]]",
"]]]]]]]]]]]]]]]]]]]]]]]]]]]]]]]]"
};
