/* XPM */
static char *sortit[] = {
/* columns rows colors chars-per-pixel */
"32 32 44 1 ",
"  c #173F1F",
". c #16451E",
"X c #194C21",
"o c #1E5624",
"O c #1D5C26",
"+ c #1F5428",
"@ c #205F27",
"# c #1D6127",
"$ c #1E6128",
"% c #1F6B2C",
"& c #21652B",
"* c #216B2D",
"= c #22722E",
"- c #256730",
"; c #237631",
": c #247C32",
"> c #297836",
", c #258435",
"< c #288336",
"1 c #278A36",
"2 c #288A37",
"3 c #2C8639",
"4 c #278B38",
"5 c #288C38",
"6 c #2A953B",
"7 c #2B9A3D",
"8 c #2DA43F",
"9 c #2D9E41",
"0 c #2EA442",
"q c #2EAA42",
"w c #30A643",
"e c #31AD44",
"r c #31B246",
"t c #34B548",
"y c #34BB49",
"u c #36C34C",
"i c #38C74E",
"p c #37CA4E",
"a c #38C94E",
"s c #37CE50",
"d c #3CCF53",
"f c #3DD054",
"g c #40CF56",
"h c #e0e0e0",
/* pixels */
"hhhhhhhhhhhhhhhhhhhhhhhhhhhhhhhh",
"&;27790qqryyyuiiiytrq8787764,;&h",
"&:698qqertyupsfffiuyeqq8wq765:*h",
"-:608qeettuuipfffiuyrqq08q765:*h",
"&:5qq8ertyuupffffputrqqqq0965:*h",
"h>3<<256770qqetttq0966544<:;>>-h",
"hhhXo$*=:<,,4666641,:=%$Oo+.Xhhh",
"hhho%;,679qqerttteq874<:=%OXXhhh",
"hhh&*,69qrtyyupspuyr8764,=%O+hhh",
"hhh&;46qetyuissfsputq964,:=O+hhh",
"hhh&;490rtuuisfffputr074,:%#ohhh",
"hhh&;460ryyuidfffpitq875,:=#ohhh",
"hhh&;470tyyuppdfsputr065,:*&@hhh",
"hhh&;470ryuupsfffputq865,:=#+hhh",
"hhh&;470ryuupsffspuyqq72,:=Oohhh",
"hhh&;46qryyuppfffpute872,:=#ohhh",
"hhh&;490ryuuisdffpuyr065,:=#ohhh",
"hhh&;460ryyuisdgspuyq065,:%#ohhh",
"hhh&;470ryyuppffssutr075,:=#ohhh",
"hhh&;470ryuupsfgfpuyr065,:=#ohhh",
"hhh&;470ryyuppffssitr075,:=#Ohhh",
"hhh&;26qryuupsfgssitq065,:=#@hhh",
"hhh&:47qryyupsffdputr865,:*#ohhh",
"hhh&=268ryuuapfgdiute065,:=#ohhh",
"hhh&;47qrtuuppffsputq075,:*#@hhh",
"hhh&;460rtuupsfgfpuyr065,:=#ohhh",
"hhh&;470tyuupssffputr075,:%#ohhh",
"hhh&;470ryyuusffsputq875,:=#@hhh",
"hhh&;57qttyupffffpuyr065,:=$ohhh",
"hhh&=560ttuuppfgssuye965,:*O@hhh",
"hhh&;47wtyyuisfgfputrw75,:=$hhhh",
"hhhhhhhhhhhhhhhhhhhhhhhhhhhhhhhh"
};
