/* XPM */
static char *player_1[] = {
/* columns rows colors chars-per-pixel */
"32 32 176 2 ",
"   c #010001",
".  c #0B0303",
"X  c #0D0905",
"o  c #0D0C09",
"O  c #07030A",
"+  c #140101",
"@  c #190303",
"#  c #160D06",
"$  c #110E0B",
"%  c #1B1306",
"&  c #13110C",
"*  c #1B130A",
"=  c #070710",
"-  c #151313",
";  c #1D1A12",
":  c #260101",
">  c #2B0303",
",  c #310202",
"<  c #3E0702",
"1  c #21180C",
"2  c #2A1D0F",
"3  c #27100E",
"4  c #36100C",
"5  c #2A1D10",
"6  c #261D13",
"7  c #382C1A",
"8  c #272219",
"9  c #000134",
"0  c #18183B",
"q  c #3C3523",
"w  c #3A3A3B",
"e  c #4A0605",
"r  c #5A0806",
"t  c #411611",
"y  c #6D0704",
"u  c #680906",
"i  c #670A08",
"p  c #750604",
"a  c #750907",
"s  c #4F2219",
"d  c #5A3E1B",
"f  c #570636",
"g  c #423825",
"h  c #464814",
"j  c #5D401A",
"k  c #5F4A30",
"l  c #6C4B22",
"z  c #694C28",
"x  c #704C23",
"c  c #705325",
"v  c #7F5F30",
"b  c #605737",
"n  c #02014C",
"m  c #010156",
"M  c #000058",
"N  c #2F3270",
"B  c #4C0670",
"V  c #454546",
"C  c #555555",
"Z  c #624948",
"A  c #6D6142",
"S  c #786B47",
"D  c #930704",
"F  c #960804",
"G  c #990904",
"H  c #890805",
"J  c #A20907",
"K  c #BB0A05",
"L  c #B50A07",
"P  c #AD0914",
"I  c #883633",
"U  c #C90D06",
"Y  c #D40B05",
"T  c #DB0C06",
"R  c #CD100A",
"E  c #E20C04",
"W  c #ED0A03",
"Q  c #E20701",
"!  c #FF0600",
"~  c #FE0902",
"^  c #F70909",
"/  c #F50A07",
"(  c #FD100B",
")  c #E80A1B",
"_  c #F10A13",
"`  c #FB1F1A",
"'  c #FB201A",
"]  c #FB2017",
"[  c #DF2822",
"{  c #F62E28",
"}  c #95753D",
"|  c #8B6C3C",
" . c #876F43",
".. c #83744D",
"X. c #987741",
"o. c #8A7C51",
"O. c #F74D49",
"+. c #E44E4A",
"@. c #F17472",
"#. c #929923",
"$. c #ACB423",
"%. c #FAFF1B",
"&. c #ECFB29",
"*. c #F4FE22",
"=. c #F6FD26",
"-. c #EBF430",
";. c #958659",
":. c #9B8B5B",
">. c #A48F5A",
",. c #A4905C",
"<. c #A9955E",
"1. c #AC995F",
"2. c #AD8E50",
"3. c #ACB650",
"4. c #999179",
"5. c #AD9A62",
"6. c #A99560",
"7. c #B29C63",
"8. c #BDA56A",
"9. c #AEB762",
"0. c #A4AC73",
"q. c #B1B764",
"w. c #C6AE6E",
"e. c #C9AE6F",
"r. c #CBB26E",
"t. c #C1B06E",
"y. c #CCB371",
"u. c #CDB974",
"i. c #DBBB74",
"p. c #BBC75D",
"a. c #C1CD58",
"s. c #DDC17B",
"d. c #E6C77D",
"f. c #F6D67F",
"g. c #020196",
"h. c #2A0390",
"j. c #0001BB",
"k. c #0A09AE",
"l. c #3A09BD",
"z. c #590A9F",
"x. c #690895",
"c. c #5010AA",
"v. c #4B05B4",
"b. c #4C4FB0",
"n. c #4D51B6",
"m. c #3804C6",
"M. c #3537CF",
"N. c #0D11EA",
"B. c #1011E7",
"V. c #0304F4",
"C. c #0100FD",
"Z. c #0708F1",
"A. c #3C40C5",
"S. c #8D7C81",
"D. c #848484",
"F. c #8F9292",
"G. c #909393",
"H. c #968B8A",
"J. c #CC9492",
"K. c #F9B1AF",
"L. c #EFCF80",
"P. c #E3D080",
"I. c #F4D482",
"U. c #FEDC86",
"Y. c #FFDD88",
"T. c #F6D783",
"R. c #FFE087",
"E. c #FFE28A",
"W. c #FFE88D",
"Q. c #D1D3D3",
"!. c #FBCFCB",
"~. c #FFDCDB",
"^. c #FAD6D5",
"/. c #FBF8F7",
"(. c #FEFEFE",
"). c #e0e0e0",
/* pixels */
").).).).).).).).).).).).                          ).).).).).).).",
").).).).).).).).).).).).r a a a p p p p p p p p i ).).).).).).).",
").).).).).).).).).).@ @ J ~ ( ' ` ` ` ` ` ` ( ~ L .   ).).).).).",
").).).).).        > U Y W ~ { !.~.~.~.~.~.~.O.! K .   ).).).).).",
").).).).).u y y y H / ~ ~ ~ [ H.F.F.F.F.F.F.I D u       ).).).).",
").).    > E ~ ~ ~ ~ ~ ~ ! ~ U : + + + + + + + + @ @ + @ + @ ).).",
").).    > E ~ ~ ~ ~ ~ ~ ~ ~ / Y Y Y Y Y Y Y Y Y Y Y Y Y T G .   ",
").).).  > E ~ ~ ~ W J G F G G G F G F G G G F F F F G G F u     ",
").).& $ 4 T W W W U 3 $ & & o     o $ $     o $ o               ",
"    S y.7.t , , > s 8.r.r.y.,.o   ..u.:.o . o.u.;.O   ).).).).).",
"    ..W.d.7 1 g b S T.R.U.R.y.$   6.W.8.X . 5.W.8.O     ).).).).",
"    ..I.i.x j 1.T.f.U.U.U.U.y.; o 6.E.w.; $ 5.W.8.* o o o o ).).",
").).7 q q d d c | } I.U.U.U.T.r.y.L.E.I.w.w.d.Y.L.e.w.w.y.;.X   ",
").).).  $ | X.X.| 2.T.U.w.>.,.<.<.,.>.8.R.E.E.U.U.Y.Y.Y.W.5.X   ",
").).).  8 s.I.T.f.f.U.U.A X X . .     q d.I.I.I.I.I.I.I.I.5..   ",
").).).).).q q 6.R.R.R.R.s.w.:.o       $ q q g q q q q q q q ).).",
").).).).).    A 5.5.6.5.1.5.o.O                           ).).).",
").).).).).).).. . . + X O = O . . . . . . .           ).).).).).",
").).).).).    a K K K L B j.h.P K K K K K L <     ).).).).).).).",
").).).).).e e L ~ ! ~ ~ x.C.m._ ~ ! ~ ! ~ ~ f m n ).).).).).).).",
").).).  > T ~ ~ ! ! ~ / x.Z.l.) ^ ^ ^ ^ ^ _ z.Z.k.= . ).).).).).",
").).).  > Q ! ! ~ T r e  .q.4.c.v.v.v.v.v.v.S.9.3.$.$.h   ).).).",
").).w V Z +.O.{ ~ U +   #.=.a.N.C.C.C.C.C.V.0.%.*.*.=.h     ).).",
"    D././././.@.~ R @   #.=.p.B.C.C.C.C.C.V.0.=.&.&.-.h     ).).",
"    D.(.(.(.(.^.K.J.-   N n.A.Z.C.C.C.C.C.C.M.n.n.n.b.0     ).).",
"    D.(.(.(.(.(.(.Q.-   g.C.C.C.C.C.C.C.C.C.C.C.C.C.V.n     ).).",
"    D.(.(.(.(.(.(.Q.-   g.C.C.C.C.C.V.C.C.C.C.C.C.C.V.n     ).).",
").).V C C C C C C V O   9 M m m m m m m m m m m M m m ).).).).).",
").).).        . # # % % % % % % % X   . * * * * % % % ).).).).).",
").).).).).    7 x l l l l l l l l 5   * k z l l l l l 1     ).).",
").).).).).    * 2 2 2 2 2 2 2 2 5 $   X 6 2 2 2 2 2 2 X     ).).",
").).).).).                                                  ).).",
").).).).).).).).).).).).).).).).).).).).).).).).).).).).).).).)."
};
