/* XPM */
static char *wall[] = {
/* columns rows colors chars-per-pixel */
"32 32 76 1 ",
"  c #371F0E",
". c #37200F",
"X c #38210F",
"o c #3E2512",
"O c #422613",
"+ c #492713",
"@ c #462916",
"# c #4A2914",
"$ c #442D1A",
"% c #4C2E1A",
"& c #56341C",
"* c #62361C",
"= c #65381D",
"- c #513823",
"; c #643D24",
": c #6D3C20",
"> c #723D24",
", c #6C4329",
"< c #764025",
"1 c #7A4326",
"2 c #774128",
"3 c #7A4328",
"4 c #7C4B2D",
"5 c #864625",
"6 c #884625",
"7 c #8A4927",
"8 c #814729",
"9 c #854A2B",
"0 c #894A2B",
"q c #94522F",
"w c #844F30",
"e c #884C31",
"r c #845537",
"t c #8E5131",
"y c #8F5D3E",
"u c #935331",
"i c #9B5730",
"p c #9D5935",
"a c #9F5A39",
"s c #A25A35",
"d c #A95F37",
"f c #A45B38",
"g c #AA5E39",
"h c #AA6037",
"j c #AC623B",
"k c #B1643B",
"l c #B5693C",
"z c #B96A3E",
"x c #846245",
"c c #976441",
"v c #946B4A",
"b c #9C7050",
"n c #A16745",
"m c #A16448",
"M c #B46C43",
"N c #BA6B41",
"B c #AE7146",
"V c #A2724E",
"C c #AF7249",
"Z c #B07247",
"A c #BA7143",
"S c #B5764D",
"D c #B6784E",
"F c #B87751",
"G c #B47951",
"H c #C57244",
"J c #C97246",
"K c #C37349",
"L c #C9774A",
"P c #C77A4E",
"I c #C67A50",
"U c #BE8662",
"Y c #CE865B",
"T c #CE885C",
"R c #D08556",
"E c #D08658",
/* pixels */
"yYYEEEEERRRRRRU-@GETREERREREEREb",
"7hjhhhhdhddgdjA,#ijjjhjggjhhkgkL",
"6ssssfssssdsssz,#qppsssssfssssfJ",
"6ssssfssdsssssz<#ussdssssssdssfJ",
"7fsfssfssshsssz,#qdssshpsdssfsdJ",
"7ssssssdssssssz,#qsssssssssssfsJ",
"6ssfssssssssssz,#qsssssssssdssdJ",
"5ssfsdsssdssssz,+qsfhfsfsssfsssJ",
"6psssssssssssiz,@qsssssssdsssssJ",
"*<<<2>12<<<1<24%o:<2<<1<<1221<38",
"XooOOOo XoOoOOOXooOoOOoX oOooOoX",
"rDDDSSb$OnDDDDDDDDDFSDV$OmFDGGGv",
"thhkjgK,#pjjjjhjjjjjjjM&OijjjjjI",
"5spsssz;@ussssssssphspk&+thssdsH",
"5sssssz;+qsssssshsssssk&OtsssssJ",
"5ssssiz:@qsssssspsssssk&OthssshH",
"5pssssN;@qsssssssissssh&+tssshsH",
"6sssssN;@qssssssssssssk&OtsssssH",
"5sssssN;+usssssssissssk&+tsssshH",
"5sssssN;@usssssfshssssk&OtsssssH",
"*>38114%o>11>3331111114$X<1<111w",
" OOOOOoXXoOOOOOoXoO$OoooXOO$+OO.",
"4BZZCCCSZZBZCCv@+cCCBZZCZBDCCCCx",
"0gMgjjjjjjjjjjM;#pjjjjjjjjjjjjjP",
"9pppiissssisisk:+qsssisshpssissH",
"5sassssssissisk;+qsssssssssssssH",
"5passiisssspssk;#qsssssssssssssH",
"5assssssssppssk=#qsissississsssH",
"6uafsssspsssspk;#qssspsssississH",
"5ssfssqssspsssl;#qpsssissspssssH",
"5aaafafffpsfsal;#uapsppssssssssH",
">6055885999885e&+>00599999999900"
};
